#define connecting_width 16
#define connecting_height 16
static unsigned char connecting_bits[] = {
   0x00, 0x00, 0xc0, 0x03, 0xe0, 0x07, 0x70, 0x0e, 0x30, 0x0c, 0x00, 0x0c,
   0x00, 0x0e, 0x00, 0x07, 0x80, 0x03, 0x80, 0x01, 0x80, 0x01, 0x00, 0x00,
   0x80, 0x01, 0x80, 0x81, 0x00, 0x00, 0x00, 0xa0 };
