#define paused_width 16
#define paused_height 16
static unsigned char paused_bits[] = {
   0x00, 0x00, 0x00, 0x00, 0x00, 0x00, 0x70, 0x0e, 0x70, 0x0e, 0x70, 0x0e,
   0x70, 0x0e, 0x70, 0x0e, 0x70, 0x0e, 0x70, 0x0e, 0x70, 0x0e, 0x70, 0x0e,
   0x70, 0x0e, 0x00, 0x80, 0x00, 0x00, 0x00, 0xa0 };
