#define playing_width 16
#define playing_height 16
static unsigned char playing_bits[] = {
   0x00, 0x00, 0x00, 0x00, 0x00, 0x00, 0x60, 0x00, 0xe0, 0x00, 0xe0, 0x01,
   0xe0, 0x03, 0xe0, 0x07, 0xe0, 0x07, 0xe0, 0x03, 0xe0, 0x01, 0xe0, 0x00,
   0x60, 0x00, 0x00, 0x80, 0x00, 0x00, 0x00, 0xa0 };
